# xmcd
#
# Track frame offsets:
#	150
#	11924
#	23421
#	37062
#	50360
#	62532
#	73351
#	86014
#	96626
#	108201
#
# Disc length: 1613 seconds
#
# Revision: 1
# Processed by: cddbd v1.5.2PL0 Copyright (c) Steve Scherf et al.
# Submitted via: audiograbber 1.83.01
#
DISCID=85064b0a
DTITLE=Lionel Grimard - LA Classic Country Volume Two
DYEAR=1900
DGENRE=Country
TTITLE0=Wasted Words
TTITLE1=Come Home and Fool Around With Me
TTITLE2=Holding Things Together
TTITLE3=Heart Over Mind
TTITLE4=Same Old Me Keeps Loving You
TTITLE5=Playboy
TTITLE6=Lonesome Town
TTITLE7=Under Your Spell
TTITLE8=Invitation to the Blues
TTITLE9=Heartache's by the Number
EXTD=
EXTT0=
EXTT1=
EXTT2=
EXTT3=
EXTT4=
EXTT5=
EXTT6=
EXTT7=
EXTT8=
EXTT9=
PLAYORDER=
